<svg xmlns="http://www.w3.org/2000/svg" data-name="Layer 1" viewBox="0 0 64 80" x="0px" y="0px">
    <title>-</title><path d="M46,4H18a4,4,0,0,0-4,4V52a4,4,0,0,0,4,4H46a3.995,3.995,0,0,0,4-4V8A4,4,0,0,0,46,4ZM38,7.25h2v1.5H38Zm-10,0h8v1.5H28Zm-4,0h2v1.5H24ZM19.25,20a.75.75,0,0,1,.75-.75h4v1.5H20.75V24h-1.5ZM24,44.75H20a.75.75,0,0,1-.75-.75V40h1.5v3.25H24Zm12.75-12V40h-1.5V32.75h-2.5V40h-1.5V32.75h-2.5V40h-1.5V32.75h-2.5V40h-1.5V32.75H20v-1.5h3.25V24h1.5v7.25h2.5V24h1.5v7.25h2.5V24h1.5v7.25h2.5V24h1.5v7.25h2.5V24h1.5v7.25H44v1.5H40.75V40h-1.5V32.75Zm8,11.25a.75.75,0,0,1-.75.75H40v-1.5h3.25V40h1.5Zm0-20h-1.5V20.75H40v-1.5h4a.75.75,0,0,1,.75.75Z"/><path d="M46,57.5H18a5.477,5.477,0,0,1-4-1.737V56a4,4,0,0,0,4,4H46a4,4,0,0,0,4-4v-.237A5.477,5.477,0,0,1,46,57.5Z"/>
</svg>
