<svg fill="none" height="638" viewBox="0 0 585 638" width="585" xmlns="http://www.w3.org/2000/svg" xmlns:xlink="http://www.w3.org/1999/xlink"><filter id="a" color-interpolation-filters="sRGB" filterUnits="userSpaceOnUse" height="189.018" width="227.816" x="-21.9378" y="165.876"><feFlood flood-opacity="0" result="BackgroundImageFix"/><feColorMatrix in="SourceAlpha" type="matrix" values="0 0 0 0 0 0 0 0 0 0 0 0 0 0 0 0 0 0 127 0"/><feOffset dy="21.4819"/><feGaussianBlur stdDeviation="23.1779"/><feColorMatrix type="matrix" values="0 0 0 0 0.172549 0 0 0 0 0.756863 0 0 0 0 1 0 0 0 0.5 0"/><feBlend in2="BackgroundImageFix" mode="normal" result="effect1_dropShadow"/><feBlend in="SourceGraphic" in2="effect1_dropShadow" mode="normal" result="shape"/></filter><filter id="b" color-interpolation-filters="sRGB" filterUnits="userSpaceOnUse" height="196.601" width="257.613" x="286.547" y="110.087"><feFlood flood-opacity="0" result="BackgroundImageFix"/><feColorMatrix in="SourceAlpha" type="matrix" values="0 0 0 0 0 0 0 0 0 0 0 0 0 0 0 0 0 0 127 0"/><feOffset dy="21.4819"/><feGaussianBlur stdDeviation="23.1779"/><feColorMatrix type="matrix" values="0 0 0 0 0.996078 0 0 0 0 0.423529 0 0 0 0 0.4 0 0 0 0.5 0"/><feBlend in2="BackgroundImageFix" mode="normal" result="effect1_dropShadow"/><feBlend in="SourceGraphic" in2="effect1_dropShadow" mode="normal" result="shape"/></filter><clipPath id="c"><path d="m0 0h585v638h-585z"/></clipPath><clipPath id="d"><rect height="538.179" rx="26.5113" transform="matrix(.902585 -.430511 .707107 .707107 -140.707 205.91)" width="248.543"/></clipPath><clipPath id="e"><path d="m0 0h39.7669v39.7669h-39.7669z" transform="matrix(.902585 -.430511 .707107 .707107 21.1172 341.23)"/></clipPath><clipPath id="f"><path d="m0 0h248.543v90.1383h-248.543z" transform="matrix(.902585 -.430511 .707107 .707107 -140.707 205.91)"/></clipPath><clipPath id="g"><path d="m0 0h39.7669v39.7669h-39.7669z" transform="matrix(.902585 -.430511 .707107 .707107 69.8594 389.973)"/></clipPath><clipPath id="h"><path d="m0 0h39.7669v39.7669h-39.7669z" transform="matrix(.902585 -.430511 .707107 .707107 118.598 438.711)"/></clipPath><clipPath id="i"><path d="m0 0h39.7669v39.7669h-39.7669z" transform="matrix(.902585 -.430511 .707107 .707107 167.336 487.449)"/></clipPath><clipPath id="j"><path d="m0 0h248.543v71.5804h-248.543z" transform="matrix(.902585 -.430511 .707107 .707107 189.227 535.844)"/></clipPath><clipPath id="k"><path d="m0 0h15.9068v15.9068h-15.9068z" transform="matrix(.902585 -.430511 .707107 .707107 223.504 536.102)"/></clipPath><clipPath id="l"><path d="m0 0h15.9068v15.9068h-15.9068z" transform="matrix(.902585 -.430511 .707107 .707107 278.141 510.043)"/></clipPath><clipPath id="m"><path d="m0 0h15.9068v15.9068h-15.9068z" transform="matrix(.902585 -.430511 .707107 .707107 332.777 483.98)"/></clipPath><clipPath id="n"><path d="m0 0h15.9068v15.9068h-15.9068z" transform="matrix(.902585 -.430511 .707107 .707107 387.414 457.922)"/></clipPath><clipPath id="o"><rect height="538.179" rx="26.5113" transform="matrix(.902585 -.430511 .707107 .707107 184.105 158.438)" width="248.543"/></clipPath><clipPath id="p"><path d="m0 0h248.543v223.357h-248.543z" transform="matrix(.902585 -.430511 .707107 .707107 270.34 244.668)"/></clipPath><clipPath id="q"><path d="m0 0h248.543v63.627h-248.543z" transform="matrix(.902585 -.430511 .707107 .707107 184.105 158.438)"/></clipPath><clipPath id="r"><path d="m0 0h15.9068v15.9068h-15.9068z" transform="matrix(.902585 -.430511 .707107 .707107 220.957 174.086)"/></clipPath><clipPath id="s"><path d="m0 0h15.9068v15.9068h-15.9068z" transform="matrix(.902585 -.430511 .707107 .707107 402.219 87.6289)"/></clipPath><clipPath id="t"><path d="m0 0h14.8238v14.8238h-14.8238z" transform="matrix(.707107 .707107 -.902585 .430511 292.457 81.9023)"/></clipPath><clipPath id="u"><path d="m0 0h14.8238v14.8238h-14.8238z" transform="matrix(-.707107 -.707107 .902585 -.430511 359.195 559.102)"/></clipPath><mask id="v" height="638" maskUnits="userSpaceOnUse" width="585" x="0" y="0"><path d="m0 0h585v638h-585z" fill="#fff"/></mask><g clip-path="url(#c)"><g mask="url(#v)"><g clip-path="url(#d)"><rect fill="#fff" height="538.179" rx="26.5113" transform="matrix(.902585 -.430511 .707107 .707107 -140.707 205.91)" width="248.543"/><path d="m0 0h248.543v68.9293h-248.543z" fill="#fff" transform="matrix(.902585 -.430511 .707107 .707107 -7.14062 339.477)"/><rect fill="#f3f5f8" height="47.7203" rx="23.8601" transform="matrix(.902585 -.430511 .707107 .707107 14.7148 340.129)" width="47.7203"/><g clip-path="url(#e)" fill="#94a2ab"><path clip-rule="evenodd" d="m39.3323 341.776c-.826.394-.971 1.238-.3239 1.885l13.2786 13.278c.6471.647 1.8412.853 2.6672.459l11.9643-5.707c.826-.394.971-1.238.3239-1.885l-8.2015-8.201-5.4836 2.615c-1.3767.657-3.3669.315-4.4454-.764l-4.296-4.296zm7.033-2.539 11.1895 1.923-4.7786 2.279c-.826.394-2.0201.189-2.6672-.458zm-8.354 4.899c-1.0784-1.078-.8367-2.485.5399-3.141l5.9821-2.854c.1322-.063.3002-.082.4669-.053l14.225 2.444c.1668.029.3186.103.4222.206l8.592 8.592c1.0785 1.079.8368 2.485-.5398 3.142l-11.9643 5.707c-1.3766.656-3.3669.314-4.4453-.764z" fill-rule="evenodd"/><path d="m51.3726 351.607c-.2157-.215-.1674-.497.108-.628l4.9851-2.378c.2753-.131.6734-.063.8891.153s.1673.497-.108.628l-4.9851 2.378c-.2754.131-.6734.063-.8891-.153z"/><path d="m53.7159 353.951c-.2157-.216-.1674-.497.1079-.629l7.9763-3.804c.2753-.132.6733-.063.889.153.2157.215.1674.497-.1079.628l-7.9763 3.804c-.2753.132-.6733.063-.889-.152z"/></g><rect fill="#94a2ab" height="11.9301" rx="5.96503" transform="matrix(.902585 -.430511 .707107 .707107 79.1719 319.766)" width="109.359"/><rect fill="#f3f5f8" height="7.95338" rx="3.97669" transform="matrix(.902585 -.430511 .707107 .707107 93.2305 333.824)" width="70.2549"/><g clip-path="url(#f)"><path d="m0 0h248.543v90.1383h-248.543z" fill="#fff" transform="matrix(.902585 -.430511 .707107 .707107 -140.707 205.91)"/><rect fill="#dfe6ec" height="11.9301" rx="5.96503" transform="matrix(.902585 -.430511 .707107 .707107 -82.2969 243.117)" width="160.393"/></g><path d="m0 0h248.543v68.9293h-248.543z" fill="#fff" transform="matrix(.902585 -.430511 .707107 .707107 41.6016 388.219)"/><rect fill="#f3f5f8" height="47.7203" rx="23.8601" transform="matrix(.902585 -.430511 .707107 .707107 63.457 388.871)" width="47.7203"/><g clip-path="url(#g)" fill="#94a2ab"><path clip-rule="evenodd" d="m88.0744 390.514c-.8259.394-.9709 1.238-.3239 1.885l13.2785 13.279c.647.647 1.841.852 2.667.458l11.965-5.707c.826-.394.971-1.238.324-1.885l-8.202-8.201-5.484 2.615c-1.376.657-3.3664.315-4.4449-.763l-4.296-4.296zm7.0331-2.539 11.1895 1.923-4.779 2.279c-.826.394-2.0198.189-2.6668-.458zm-8.354 4.9c-1.0784-1.079-.8368-2.485.5399-3.142l5.9821-2.853c.1322-.063.3002-.083.4669-.054l14.2246 2.444c.167.029.319.103.423.207l8.592 8.592c1.078 1.078.836 2.485-.54 3.141l-11.965 5.707c-1.376.657-3.366.315-4.445-.764z" fill-rule="evenodd"/><path d="m100.115 400.346c-.2159-.216-.1676-.497.108-.629l4.985-2.378c.275-.131.673-.063.889.153s.167.497-.108.629l-4.985 2.377c-.275.132-.674.063-.889-.152z"/><path d="m102.458 402.689c-.216-.216-.167-.497.108-.629l7.976-3.804c.276-.131.674-.063.889.153.216.215.168.497-.108.628l-7.976 3.805c-.275.131-.673.063-.889-.153z"/></g><rect fill="#94a2ab" height="11.9301" rx="5.96503" transform="matrix(.902585 -.430511 .707107 .707107 127.918 368.508)" width="109.359"/><rect fill="#f3f5f8" height="7.95338" rx="3.97669" transform="matrix(.902585 -.430511 .707107 .707107 141.973 382.566)" width="70.2549"/><path d="m0 0h248.543v68.9293h-248.543z" fill="#fff" transform="matrix(.902585 -.430511 .707107 .707107 90.3398 436.957)"/><rect fill="#f3f5f8" height="47.7203" rx="23.8601" transform="matrix(.902585 -.430511 .707107 .707107 112.195 437.609)" width="47.7203"/><g clip-path="url(#h)" fill="#94a2ab"><path clip-rule="evenodd" d="m136.813 439.256c-.826.394-.971 1.238-.324 1.885l13.278 13.279c.648.647 1.842.852 2.668.458l11.964-5.707c.826-.393.971-1.237.324-1.885l-8.202-8.201-5.483 2.616c-1.377.656-3.367.314-4.446-.764l-4.296-4.296zm7.033-2.539 11.189 1.923-4.778 2.279c-.826.394-2.02.189-2.668-.458zm-8.354 4.9c-1.079-1.079-.837-2.485.54-3.142l5.982-2.853c.132-.063.3-.083.467-.054l14.225 2.444c.166.029.318.103.422.207l8.592 8.592c1.078 1.078.837 2.485-.54 3.142l-11.964 5.706c-1.377.657-3.367.315-4.446-.764z" fill-rule="evenodd"/><path d="m148.853 449.088c-.216-.216-.167-.497.108-.629l4.985-2.377c.275-.132.674-.063.889.152.216.216.168.497-.108.629l-4.985 2.377c-.275.132-.673.063-.889-.152z"/><path d="m151.196 451.431c-.215-.216-.167-.497.108-.628l7.977-3.805c.275-.131.673-.063.889.153.215.216.167.497-.108.628l-7.977 3.805c-.275.131-.673.063-.889-.153z"/></g><rect fill="#94a2ab" height="11.9301" rx="5.96503" transform="matrix(.902585 -.430511 .707107 .707107 176.652 417.246)" width="109.359"/><rect fill="#f3f5f8" height="7.95338" rx="3.97669" transform="matrix(.902585 -.430511 .707107 .707107 190.711 431.305)" width="70.2549"/><path d="m0 0h248.543v68.9293h-248.543z" fill="#fff" transform="matrix(.902585 -.430511 .707107 .707107 139.078 485.695)"/><rect fill="#f3f5f8" height="47.7203" rx="23.8601" transform="matrix(.902585 -.430511 .707107 .707107 160.934 486.348)" width="47.7203"/><g clip-path="url(#i)" fill="#94a2ab"><path clip-rule="evenodd" d="m185.551 487.991c-.826.394-.971 1.238-.324 1.885l13.279 13.278c.647.647 1.841.853 2.667.459l11.964-5.707c.826-.394.971-1.238.324-1.885l-8.201-8.202-5.484 2.616c-1.377.657-3.367.315-4.445-.764l-4.296-4.296zm7.033-2.539 11.19 1.923-4.779 2.279c-.826.394-2.02.189-2.667-.458zm-8.354 4.899c-1.078-1.078-.837-2.485.54-3.141l5.982-2.854c.132-.063.3-.082.467-.054l14.225 2.445c.167.028.319.103.422.206l8.592 8.592c1.079 1.079.837 2.485-.54 3.142l-11.964 5.707c-1.377.656-3.367.314-4.445-.764z" fill-rule="evenodd"/><path d="m197.591 497.822c-.215-.216-.167-.497.108-.628l4.985-2.378c.276-.131.674-.063.89.153.215.215.167.497-.108.628l-4.986 2.378c-.275.131-.673.063-.889-.153z"/><path d="m199.935 500.165c-.216-.215-.168-.497.108-.628l7.976-3.804c.275-.132.673-.063.889.152.216.216.167.497-.108.629l-7.976 3.804c-.276.131-.674.063-.889-.153z"/></g><rect fill="#94a2ab" height="11.9301" rx="5.96503" transform="matrix(.902585 -.430511 .707107 .707107 225.395 465.984)" width="109.359"/><rect fill="#f3f5f8" height="7.95338" rx="3.97669" transform="matrix(.902585 -.430511 .707107 .707107 239.449 480.043)" width="70.2549"/><g clip-path="url(#j)"><path d="m0 0h248.543v71.5804h-248.543z" fill="#fff" transform="matrix(.902585 -.430511 .707107 .707107 189.227 535.844)"/><g clip-path="url(#k)"><circle r="6.95921" stroke="#94a2ab" stroke-width="1.98834" transform="matrix(.902585 -.430511 .707107 .707107 236.308 538.3)"/></g><rect fill="#dfe6ec" height="5.30225" rx="2.65113" transform="matrix(.902585 -.430511 .707107 .707107 238.578 553.832)" width="19.8834"/><g clip-path="url(#l)"><circle r="6.95921" stroke="#94a2ab" stroke-width="1.98834" transform="matrix(.902585 -.430511 .707107 .707107 290.944 512.241)"/></g><rect fill="#dfe6ec" height="5.30225" rx="2.65113" transform="matrix(.902585 -.430511 .707107 .707107 293.219 527.773)" width="19.8834"/><g clip-path="url(#m)"><circle fill="#94a2ab" r="6.95921" stroke="#94a2ab" stroke-width="1.98834" transform="matrix(.902585 -.430511 .707107 .707107 345.577 486.183)"/></g><rect fill="#94a2ab" height="5.30225" rx="2.65113" transform="matrix(.902585 -.430511 .707107 .707107 347.855 501.711)" width="19.8834"/><g clip-path="url(#n)"><circle r="6.95921" stroke="#94a2ab" stroke-width="1.98834" transform="matrix(.902585 -.430511 .707107 .707107 400.218 460.12)"/></g><rect fill="#dfe6ec" height="5.30225" rx="2.65113" transform="matrix(.902585 -.430511 .707107 .707107 402.492 475.652)" width="19.8834"/></g><rect fill="#f3f5f8" height="86.1616" rx="7.95338" transform="matrix(.902585 -.430511 .707107 .707107 -59.332 266.078)" width="82.1849"/><g fill="#94a2ab"><path clip-rule="evenodd" d="m-3.9468 277.737c-1.07847-1.078-.83678-2.485.53983-3.142l3.4182963-1.63c.5723297-.273 1.3503637-.266 2.0039337.018l1.95187.847c.21786.095.47721.097.66798.006l6.00519-2.864c1.3766-.657 3.3668-.315 4.4453.763l4.1658 4.166c1.0785 1.079.8368 2.485-.5398 3.142l-.4985.238.3905.39c1.0785 1.079.8368 2.485-.5398 3.142l-11.96432 5.707c-1.37661.656-3.36685.314-4.44531-.764l-6.24877-6.249c-1.07847-1.079-.83678-2.485.53983-3.142l.49852-.237zm.67313 1.409c-.82597.394-.97098 1.238-.3239 1.885l6.24876 6.249c.64709.647 1.84123.852 2.66719.458l11.96432-5.706c.826-.394.971-1.238.3239-1.885l-4.1658-4.166c-.6471-.647-1.8412-.852-2.6672-.458l-6.00519 2.864c-.57233.273-1.35036.266-2.00393-.018l-1.951878-.847c-.217856-.095-.477201-.097-.667979-.006zm20.70567-.646-2.9942-2.995c-1.0785-1.078-3.0687-1.42-4.4453-.763l-6.00519 2.864c-.19077.091-.45012.089-.66797-.006l-1.95188-.847c-.653569-.284-1.4316024-.291-2.003932-.018l-1.922748.917-.39055-.391c-.64708-.647-.50207-1.491.3239-1.885l3.418292-1.63c.190777-.091.450118-.089.667978.006l1.95187.847c.65358.284 1.43161.291 2.00394.018l6.00519-2.864c.826-.394 2.0201-.189 2.6672.458l4.1658 4.166c.6471.647.5021 1.491-.3239 1.885z" fill-rule="evenodd"/><path d="m14.333 280.555c.4313.431.3347.994-.216 1.256-.5506.263-1.3467.126-1.7781-.305-.4314-.432-.3347-.994.2159-1.257.5507-.263 1.3468-.126 1.7782.306z"/><path d="m11.3419 281.981c.4314.432.3347.994-.216 1.257-.5506.263-1.3467.126-1.77809-.306-.43139-.431-.33471-.994.21593-1.256.55066-.263 1.34676-.126 1.77816.305z"/></g><rect fill="#f3f5f8" height="86.1616" rx="7.95338" transform="matrix(.902585 -.430511 .707107 .707107 108.172 186.184)" width="82.1849"/><path clip-rule="evenodd" d="m163.561 197.839c-1.078-1.079-.837-2.485.54-3.142l3.418-1.631c.572-.273 1.351-.266 2.004.018l1.952.848c.218.094.477.096.668.005l6.005-2.864c1.377-.656 3.367-.314 4.445.764l4.166 4.166c1.079 1.078.837 2.485-.54 3.141l-.498.238.39.391c1.079 1.078.837 2.485-.539 3.141l-11.965 5.707c-1.376.657-3.367.315-4.445-.764l-6.249-6.248c-1.078-1.079-.837-2.485.54-3.142l.499-.238zm.673 1.409c-.826.394-.971 1.238-.324 1.885l6.249 6.249c.647.647 1.841.852 2.667.458l11.965-5.707c.825-.394.971-1.238.323-1.885l-4.165-4.165c-.647-.648-1.842-.853-2.668-.459l-6.005 2.865c-.572.273-1.35.266-2.004-.018l-1.952-.848c-.217-.094-.477-.096-.668-.005zm20.706-.647-2.994-2.994c-1.079-1.079-3.069-1.42-4.446-.764l-6.005 2.864c-.191.091-.45.089-.668-.005l-1.952-.848c-.653-.284-1.431-.291-2.004-.018l-1.922.918-.391-.391c-.647-.647-.502-1.491.324-1.885l3.418-1.63c.191-.091.45-.089.668.005l1.952.848c.654.284 1.432.291 2.004.018l6.005-2.865c.826-.394 2.02-.189 2.667.459l4.166 4.165c.647.647.502 1.491-.324 1.885z" fill="#94a2ab" fill-rule="evenodd"/><path d="m181.841 200.656c.431.432.334.994-.216 1.257-.551.262-1.347.126-1.778-.306-.432-.431-.335-.994.216-1.256.55-.263 1.346-.126 1.778.305z" fill="#94a2ab"/><path d="m178.85 202.083c.431.431.334.994-.216 1.256-.551.263-1.347.126-1.778-.305-.432-.431-.335-.994.216-1.257.55-.262 1.346-.126 1.778.306z" fill="#94a2ab"/><g filter="url(#a)"><rect fill="#2cc1ff" height="86.1616" rx="7.95338" transform="matrix(.902585 -.430511 .707107 .707107 24.418 226.133)" width="82.1849"/><g fill="#fff"><path clip-rule="evenodd" d="m79.8071 237.788c-1.0785-1.079-.8368-2.485.5398-3.142l3.4183-1.63c.5724-.273 1.3504-.266 2.004.017l1.9518.848c.2179.094.4772.097.668.006l6.0052-2.865c1.3766-.656 3.3668-.314 4.4453.764l4.1655 4.166c1.079 1.079.837 2.485-.539 3.142l-.499.237.391.391c1.078 1.078.836 2.485-.54 3.142l-11.9646 5.706c-1.3766.657-3.3669.315-4.4453-.763l-6.2488-6.249c-1.0785-1.079-.8368-2.485.5398-3.142l.4986-.238zm.6731 1.409c-.8259.394-.9709 1.238-.3239 1.885l6.2488 6.249c.6471.647 1.8412.852 2.6672.458l11.9647-5.706c.826-.394.971-1.238.324-1.885l-4.1663-4.166c-.6471-.647-1.8412-.853-2.6672-.459l-6.0052 2.865c-.5723.273-1.3503.266-2.0039-.018l-1.9519-.847c-.2178-.095-.4772-.097-.668-.006zm20.7058-.647-2.9943-2.994c-1.0785-1.078-3.0687-1.42-4.4453-.764l-6.0052 2.865c-.1908.091-.4501.088-.668-.006l-1.9518-.848c-.6536-.283-1.4316-.29-2.004-.017l-1.9227.917-.3906-.391c-.647-.647-.502-1.491.3239-1.885l3.4183-1.63c.1908-.091.4502-.089.668.006l1.9519.847c.6536.284 1.4316.291 2.0039.018l6.0052-2.865c.826-.393 2.0201-.188 2.6672.459l4.1655 4.166c.647.647.502 1.491-.324 1.885z" fill-rule="evenodd"/><path d="m98.0869 240.605c.4313.432.3347.994-.216 1.257-.5506.263-1.3467.126-1.7781-.306-.4314-.431-.3347-.994.2159-1.256.5507-.263 1.3468-.126 1.7782.305z"/><path d="m95.0958 242.032c.4314.431.3347.994-.216 1.257-.5506.262-1.3467.126-1.7781-.306-.4314-.431-.3347-.994.216-1.256.5506-.263 1.3467-.126 1.7781.305z"/></g></g></g><rect height="536.853" rx="25.8485" stroke="#94a2ab" stroke-opacity=".3" stroke-width="1.32556" transform="matrix(.902585 -.430511 .707107 .707107 -140.733 206.423)" width="247.218" x="1.06687" y=".183323"/><g clip-path="url(#o)"><rect fill="#fff" height="538.179" rx="26.5113" transform="matrix(.902585 -.430511 .707107 .707107 184.105 158.438)" width="248.543"/><g clip-path="url(#p)"><path d="m0 0h248.543v223.357h-248.543z" fill="#fff" transform="matrix(.902585 -.430511 .707107 .707107 270.34 244.668)"/><path d="m302.98 277.312c2.086-9.28 17.963-24.861 42.772-20.402 31.013 5.574 120.431 53.723 152.617 38.372 32.186-15.352 1.356-79.71 48.015-106.782" stroke="#dfe6ec" stroke-linecap="round" stroke-linejoin="round" stroke-width="2.65113"/><path d="m341.074 315.406c.407-16.759 21.524-55.334 50.525-63.105 47.887-12.831 124.188 26.371 157.798 10.34 19.968-9.524 19.089-31.221 21.047-50.08" stroke="#f3f5f8" stroke-linecap="round" stroke-linejoin="round" stroke-width="2.65113"/><path d="m389.918 364.25c11.218.863 44.298 8.212 42.357-30.558-1.942-38.77-15.069-106.033 17.112-121.383 26.851-12.807 60.411-.855 85.777-35.029" stroke="#94a2ab" stroke-linecap="round" stroke-linejoin="round" stroke-width="2.65113"/><g fill="#94a2ab"><circle r="5.30225" stroke="#94a2ab" stroke-width="1.32556" transform="matrix(.902585 -.430511 .707107 .707107 447.473 214.166)"/><path d="m439.924 375.734c.292.292.475.608.549.946.068.333-.005.663-.219.989-.215.327-.587.617-1.119.87-.516.247-1.05.397-1.599.452-.556.049-1.085.002-1.588-.14s-.941-.374-1.314-.694l1.314-.627c.294.242.657.397 1.086.467.437.065.864-.001 1.28-.2.373-.178.582-.393.625-.647.051-.257-.047-.509-.295-.756-.214-.214-.463-.352-.749-.415-.291-.069-.588-.09-.889-.062-.301.027-.696.083-1.185.166-.592.108-1.098.175-1.517.201-.413.022-.836-.03-1.269-.155-.433-.126-.832-.372-1.198-.737-.32-.321-.501-.65-.542-.988-.041-.337.061-.66.305-.967.238-.313.601-.586 1.089-.819.776-.37 1.536-.516 2.28-.44.752.074 1.397.331 1.934.773l-1.325.632c-.275-.201-.603-.328-.983-.379-.378-.06-.757 0-1.138.182-.344.164-.551.366-.618.606-.073.234.019.481.278.74.203.202.443.336.722.403.273.061.556.079.85.055.296-.033.684-.089 1.166-.17.599-.111 1.111-.177 1.537-.197.426-.029.859.022 1.298.154.446.127.857.38 1.234.757z"/><path d="m467.249 356.385 5.863 5.863-1.238.591-4.395-4.396 2.231 5.428-1.077.513-6.57-3.357 4.395 4.395-1.228.585-5.863-5.862 1.486-.709 7.159 3.5-2.249-5.842z"/><path d="m495.869 342.598.776.776-2.122 1.012 5.18 5.179-1.238.591-5.18-5.18-2.11 1.007-.777-.776z"/><path d="m528.725 326.927 4.061 6.859-1.508.719-6.21-3.84 3.001 5.371-1.507.719-7.851-5.052 1.346-.642 6.156 4.216-3.173-5.639 1.356-.647 6.512 4.046-3.529-5.468z"/><path d="m556.888 313.492.776.777-2.121 1.011 5.179 5.18-1.238.591-5.179-5.18-2.111 1.007-.776-.776z"/><path d="m584.603 300.272.777.776-3.263 1.557 1.847 1.847 2.692-1.284.743.742-2.692 1.284 2.59 2.59-1.228.586-5.956-5.956z"/></g></g><g filter="url(#b)"><rect fill="#fe6c66" height="68.2344" rx="15.9068" transform="matrix(.902585 -.430511 .707107 .707107 332.902 190.602)" width="129.242"/><g fill="#fff"><path d="m362.267 200.372 3.435-1.638c.793-.379 1.211-.829 1.255-1.353.045-.528-.204-1.063-.747-1.606-.292-.292-.652-.517-1.08-.674-.427-.162-.881-.216-1.361-.161.12-.219.144-.46.074-.721s-.243-.53-.519-.805c-.267-.267-.61-.494-1.03-.68-.419-.186-.885-.284-1.398-.293-.515-.011-1.049.115-1.602.378l-3.101 1.479zm-2.218-4.412-1.299-1.299 1.594-.76c.28-.134.557-.172.83-.116.274.056.504.177.689.363.222.222.303.425.242.607-.06.179-.214.327-.462.445zm2.624 2.624-1.552-1.553 1.798-.857c.341-.163.668-.213.98-.15.312.059.577.196.794.413.244.244.343.486.295.725-.047.234-.219.422-.517.564z"/><path d="m370.865 196.458c.448-.214.772-.447.97-.699.199-.257.308-.567.328-.929l.556.557 1.282-.612-2.784-2.783c-.208-.209-.407-.392-.598-.55-.19-.159-.427-.295-.71-.409-.509-.206-1.024-.276-1.546-.209-.522.066-1.04.221-1.553.466-.7.334-1.135.716-1.304 1.145-.169.43-.139.868.09 1.315l1.654-.302c-.115-.253-.096-.476.055-.668.152-.193.336-.341.551-.444.345-.164.652-.236.922-.215.267.018.522.127.764.327-.484.322-.904.612-1.262.869-.36.255-.64.489-.842.701-.331.358-.475.698-.432 1.023.04.321.219.64.537.958.253.253.559.45.917.591.358.136.745.199 1.158.188.415-.014.83-.121 1.247-.32zm-.591-1.051c-.251.119-.494.171-.728.154-.237-.02-.433-.107-.588-.262-.115-.115-.167-.236-.155-.362.009-.129.087-.278.235-.448.117-.127.277-.267.478-.421.202-.159.516-.388.943-.687.106.111.216.237.331.378.111.138.185.271.223.398.025.084.03.2.014.348-.012.147-.073.303-.184.468-.11.161-.3.305-.569.434z"/><path d="m375.508 194.056 1.465-.698-6.201-6.201-1.464.699z"/><path d="m380.329 191.944c.448-.214.772-.447.97-.7.199-.256.308-.566.328-.928l.556.556 1.282-.611-2.784-2.784c-.208-.208-.407-.391-.598-.549-.19-.159-.427-.295-.71-.409-.509-.206-1.024-.276-1.546-.21-.522.067-1.04.222-1.553.467-.7.334-1.135.716-1.304 1.145-.169.43-.139.868.09 1.315l1.654-.302c-.115-.253-.096-.476.055-.669.152-.192.336-.34.551-.443.345-.164.652-.236.922-.215.267.018.522.127.764.327-.484.322-.904.612-1.262.869-.36.255-.64.489-.842.701-.331.358-.475.698-.432 1.022.04.322.219.641.537.959.253.253.559.45.917.591.358.136.745.199 1.158.188.415-.015.83-.121 1.247-.32zm-.591-1.052c-.251.12-.494.172-.728.155-.237-.02-.433-.107-.588-.262-.115-.115-.167-.236-.155-.362.009-.129.087-.278.235-.449.117-.126.277-.266.478-.42.202-.159.516-.388.943-.687.106.111.216.237.331.378.111.138.185.271.223.398.025.084.03.2.014.348-.012.147-.073.303-.184.468-.11.161-.3.305-.569.433z"/><path d="m384.854 189.599 1.486-.709-2.312-2.311c-.284-.284-.472-.531-.564-.74-.089-.211-.115-.39-.076-.537.035-.15.11-.275.222-.374.113-.1.232-.179.358-.239.312-.149.607-.209.886-.18.281.028.542.105.78.232.239.127.447.269.624.425.175.154.314.282.418.386l2.151 2.152 1.486-.709-2.556-2.556c-.076-.076-.204-.194-.384-.353s-.404-.322-.672-.489c-.271-.17-.58-.309-.927-.418-.343-.11-.719-.157-1.127-.141s-.84.133-1.296.35c-.42.2-.731.43-.934.688-.203.259-.318.53-.347.814l-.469-.468-1.302.621z"/><path d="m394.294 185.283c.675-.322 1.112-.723 1.309-1.204.198-.481.138-1.002-.181-1.565l-1.741.47c.133.26.173.49.119.691-.055.2-.247.379-.577.536-.441.211-.898.248-1.368.111-.47-.141-.904-.41-1.3-.807-.38-.379-.59-.746-.631-1.1-.041-.359.17-.649.633-.869.269-.129.576-.177.92-.146.348.029.682.141 1.005.337l1.161-1.003c-.599-.408-1.267-.635-2.004-.683-.735-.052-1.446.086-2.132.413-.592.282-1.001.631-1.227 1.047-.226.415-.278.861-.156 1.339.126.475.419.944.88 1.405.456.455.98.81 1.572 1.063.593.253 1.21.382 1.851.388.642.005 1.264-.136 1.867-.423z"/><path d="m400.554 182.297c.56-.267.96-.628 1.2-1.083.243-.457.266-.945.069-1.466l-1.794.37c.16.488-.051.871-.632 1.149-.399.19-.8.252-1.204.187-.4-.066-.791-.25-1.171-.55l4.082-1.947c-.491-.58-1.042-1.025-1.654-1.335s-1.245-.476-1.897-.497-1.283.113-1.893.404c-.574.274-.98.619-1.216 1.035-.239.413-.3.864-.183 1.352s.425.981.922 1.479c.456.455.988.8 1.597 1.032.61.229 1.243.336 1.897.323.656-.018 1.282-.169 1.877-.453zm-3.834-3.803c.352-.168.69-.227 1.014-.178.328.047.674.212 1.037.496l-2.563 1.222c-.43-.659-.26-1.172.512-1.54z"/><path d="m387.42 219.362 2.604-1.242-1.358-1.357c1.035-.737 1.616-1.575 1.742-2.514.121-.944-.256-1.853-1.131-2.728-.775-.775-1.668-1.268-2.68-1.479-1.006-.214-2.256-.168-3.75.138l-2.971.62c-.747.157-1.354.21-1.82.159-.471-.056-.836-.214-1.096-.474-.355-.355-.433-.753-.234-1.195.206-.445.632-.811 1.278-1.097.679-.301 1.401-.413 2.167-.336.767.07 1.457.313 2.071.729l2.305-1.653c-1.092-.697-2.228-1.145-3.407-1.343-1.177-.207-2.345-.159-3.504.143l-1.395-1.395-2.603 1.242 1.35 1.35c-.991.686-1.535 1.462-1.63 2.328-.096.865.278 1.72 1.123 2.565 1.405 1.405 3.327 1.876 5.767 1.413l4.233-.8c1.075-.188 1.862-.032 2.362.468.39.39.478.831.264 1.325-.207.49-.671.907-1.392 1.251-.766.365-1.601.505-2.506.42-.899-.088-1.729-.386-2.492-.894l-2.269 1.548c1.082.827 2.29 1.366 3.624 1.616 1.34.247 2.665.187 3.976-.18z"/><path d="m396.978 212.588 2.661-1.269-10.798-10.798-2.661 1.269-1.369 2.448 2.249 2.249 1.34-2.477z"/><path d="m404.345 212.065c.99-.31 1.514-.752 1.572-1.326s-.274-1.221-.993-1.941l-2.04-2.039-2.603 1.242 2.039 2.039 1.34-.639c.43.327.656.651.676.973.028.32-.204.574-.693.763z"/><path d="m413.598 204.993c.868-.414 1.506-.954 1.913-1.621.403-.672.552-1.386.447-2.14-.109-.76-.504-1.48-1.184-2.16s-1.473-1.195-2.379-1.545c-.9-.354-1.835-.525-2.803-.513-.962.009-1.877.22-2.745.634-.951.453-1.577 1.08-1.879 1.881l-.922-.922c-.33-.33-.541-.687-.633-1.071-.091-.393-.045-.765.139-1.119.185-.361.527-.661 1.024-.898.664-.317 1.428-.401 2.293-.252l.402-2.34c-.874-.13-1.691-.128-2.452.007-.762.134-1.477.361-2.147.68-1.034.493-1.766 1.09-2.197 1.79-.436.695-.554 1.453-.356 2.274.194.816.716 1.648 1.566 2.498l3.134 3.135c.785.784 1.688 1.376 2.709 1.775 1.016.394 2.052.587 3.108.578 1.062-.012 2.05-.236 2.962-.671zm-1.949-1.95c-.396.189-.834.284-1.314.284-.481 0-.944-.082-1.391-.245-.446-.164-.819-.396-1.119-.696-.31-.31-.497-.638-.56-.984-.062-.354-.006-.684.17-.989.177-.313.463-.564.859-.753.395-.189.833-.283 1.314-.283.475-.006.938.076 1.39.245.446.163.824.4 1.134.71s.494.64.551.989c.063.346.004.673-.178.982-.175.305-.461.552-.856.74z"/><path d="m425.507 199.313c.867-.414 1.505-.954 1.913-1.621.402-.672.551-1.385.446-2.14-.109-.76-.504-1.48-1.184-2.16s-1.473-1.195-2.379-1.545c-.9-.354-1.834-.525-2.803-.513-.962.009-1.877.22-2.745.634-.951.453-1.577 1.081-1.879 1.882l-.922-.923c-.33-.33-.541-.687-.633-1.071-.091-.392-.044-.765.139-1.119.186-.361.527-.661 1.025-.898.663-.317 1.428-.401 2.292-.252l.403-2.34c-.874-.13-1.692-.128-2.453.007-.761.134-1.477.361-2.147.68-1.034.493-1.766 1.09-2.197 1.79-.435.695-.554 1.453-.355 2.274.193.816.715 1.648 1.565 2.498l3.134 3.135c.785.785 1.688 1.376 2.709 1.775 1.016.394 2.052.587 3.108.578 1.063-.012 2.05-.236 2.963-.671zm-1.95-1.95c-.396.189-.834.284-1.314.284s-.944-.082-1.39-.245c-.447-.164-.82-.396-1.12-.696-.31-.309-.496-.638-.56-.984-.062-.354-.005-.684.17-.989.177-.313.463-.564.859-.753.395-.189.833-.283 1.314-.283.475-.006.939.076 1.39.245.446.163.824.4 1.134.71s.494.64.551.989c.064.346.004.673-.177.982-.176.305-.461.552-.857.74z"/><path d="m436.707 193.971c.867-.414 1.511-.957 1.932-1.63.415-.678.577-1.398.485-2.159-.097-.766-.485-1.489-1.165-2.169-.68-.679-1.471-1.192-2.372-1.537-.9-.354-1.832-.522-2.795-.506-.963.009-1.878.22-2.745.634-.3.143-.589.325-.868.547-.278.221-.505.47-.681.746l-2.164-2.446 5.217-2.488-1.905-1.905-7.523 3.588 5.323 5.945 2.726-.525c.038-.188.148-.417.329-.689.177-.276.507-.529.992-.761.396-.188.831-.285 1.307-.291.482-.008.946.07 1.392.233.453.161.834.396 1.144.706s.494.64.551.989c.063.346.004.674-.178.982-.175.305-.461.552-.856.741-.447.213-.984.303-1.611.269-.627-.033-1.194-.209-1.702-.528l-1.982 1.721c.721.439 1.502.753 2.342.943s1.676.253 2.507.188c.837-.067 1.604-.266 2.3-.598z"/><path d="m444.079 190.122 2.603-1.241-2.039-2.04-2.604 1.242z"/><path d="m443.204 174.282c-.868.413-1.503.956-1.906 1.628-.407.667-.556 1.381-.447 2.14.105.755.497 1.473 1.177 2.153.68.679 1.47 1.196 2.37 1.549.906.351 1.84.522 2.803.513.968-.011 1.886-.224 2.754-.638.951-.454 1.577-1.081 1.879-1.882l.922.922c.33.33.54.691.631 1.084.092.384.046.757-.139 1.119-.184.353-.525.648-1.023.886-.663.316-1.427.4-2.292.252l-.402 2.34c.874.13 1.691.127 2.452-.007s1.477-.361 2.147-.681c1.034-.493 1.769-1.087 2.204-1.782.431-.7.55-1.458.356-2.274-.199-.821-.723-1.656-1.573-2.506l-3.134-3.134c-.785-.785-1.686-1.374-2.702-1.768-1.021-.399-2.062-.593-3.125-.581-1.056.009-2.04.231-2.952.667zm1.949 1.949c.396-.189.834-.283 1.314-.283.481-.001.944.081 1.39.245.447.163.82.395 1.12.695.31.31.496.642.558.997.063.346.007.676-.17.989-.175.305-.461.552-.857.741-.395.188-.831.285-1.306.291-.481 0-.944-.082-1.39-.246-.452-.168-.832-.407-1.142-.717s-.497-.638-.561-.985c-.057-.349.003-.676.178-.981.182-.309.471-.557.866-.746z"/><path d="m455.112 168.602c-.868.414-1.503.956-1.906 1.628-.407.667-.556 1.381-.446 2.141.104.754.496 1.472 1.176 2.152s1.47 1.196 2.37 1.55c.906.35 1.841.521 2.803.512.968-.011 1.887-.224 2.754-.638.951-.454 1.577-1.081 1.879-1.882l.922.922c.33.33.541.692.631 1.084.093.384.046.757-.139 1.119-.184.353-.525.648-1.022.886-.664.316-1.428.4-2.293.252l-.402 2.34c.874.13 1.691.127 2.453-.007.761-.134 1.476-.361 2.146-.681 1.034-.493 1.769-1.087 2.205-1.782.43-.7.549-1.458.355-2.274-.199-.821-.723-1.656-1.573-2.506l-3.134-3.134c-.785-.785-1.685-1.374-2.701-1.768-1.021-.399-2.063-.593-3.125-.581-1.056.009-2.041.231-2.953.667zm1.949 1.949c.396-.189.834-.283 1.314-.283.481 0 .944.081 1.391.245.446.163.819.395 1.119.695.31.31.496.642.558.997.064.346.007.676-.17.989-.175.305-.461.552-.856.741-.396.188-.832.285-1.307.291-.48 0-.944-.082-1.39-.245-.451-.169-.832-.408-1.142-.718s-.497-.638-.56-.985c-.057-.349.002-.676.177-.981.182-.309.471-.557.866-.746z"/></g></g><path d="m0 0h248.543v47.7203h-248.543z" fill="#fff" transform="matrix(.902585 -.430511 .707107 .707107 439.523 413.852)"/><rect fill="#f3f5f8" height="31.8135" rx="15.9068" transform="matrix(.902585 -.430511 .707107 .707107 459.504 412.629)" width="31.8135"/><path clip-rule="evenodd" d="m486.183 424.977c-.184.088-.449.042-.593-.102l-2.864-2.864c-1.294-1.294-1.004-2.982.648-3.77l3.988-1.902c1.652-.788 4.04-.377 5.335.917l2.864 2.864c.143.144.111.331-.072.419-.184.087-.449.042-.593-.102l-2.864-2.864c-1.007-1.007-2.864-1.326-4.149-.713l-3.988 1.902c-1.285.613-1.511 1.926-.504 2.932l2.864 2.864c.144.144.111.332-.072.419zm-.876-12.657c1.438 1.438 1.115 3.314-.72 4.189-1.836.876-4.489.42-5.927-1.018s-1.116-3.314.72-4.189c1.835-.876 4.489-.42 5.927 1.018zm-1.241 3.668c1.469-.7 1.726-2.2.576-3.351-1.15-1.15-3.273-1.515-4.742-.814-1.468.7-1.726 2.2-.575 3.351 1.15 1.15 3.273 1.515 4.741.814z" fill="#94a2ab" fill-rule="evenodd"/><rect fill="#94a2ab" height="7.95338" rx="3.97669" transform="matrix(.902585 -.430511 .707107 .707107 501.539 398.117)" width="125.929"/><rect fill="#dfe6ec" height="7.95338" rx="3.97669" transform="matrix(.902585 -.430511 .707107 .707107 510.914 407.492)" width="80.8594"/><path d="m0 0h248.543v47.7203h-248.543z" fill="#fff" transform="matrix(.902585 -.430511 .707107 .707107 477.02 451.348)"/><rect fill="#f3f5f8" height="31.8135" rx="15.9068" transform="matrix(.902585 -.430511 .707107 .707107 497 450.125)" width="31.8135"/><path clip-rule="evenodd" d="m523.679 462.473c-.184.088-.449.042-.593-.102l-2.864-2.864c-1.294-1.294-1.004-2.982.648-3.769l3.988-1.903c1.652-.788 4.04-.377 5.335.917l2.864 2.864c.143.144.111.331-.072.419-.184.087-.449.042-.593-.102l-2.864-2.864c-1.007-1.007-2.864-1.326-4.149-.713l-3.988 1.902c-1.285.613-1.511 1.926-.504 2.932l2.864 2.864c.144.144.112.332-.072.419zm-.876-12.657c1.438 1.438 1.116 3.314-.72 4.189-1.835.876-4.489.42-5.927-1.018s-1.116-3.314.72-4.189c1.835-.875 4.489-.42 5.927 1.018zm-1.241 3.669c1.469-.701 1.727-2.201.576-3.352-1.15-1.15-3.273-1.515-4.742-.814-1.468.7-1.726 2.2-.575 3.351 1.15 1.15 3.273 1.515 4.741.815z" fill="#94a2ab" fill-rule="evenodd"/><rect fill="#94a2ab" height="7.95338" rx="3.97669" transform="matrix(.902585 -.430511 .707107 .707107 539.035 435.613)" width="125.929"/><rect fill="#dfe6ec" height="7.95338" rx="3.97669" transform="matrix(.902585 -.430511 .707107 .707107 548.41 444.988)" width="80.8594"/><path d="m0 0h248.543v47.7203h-248.543z" fill="#fff" transform="matrix(.902585 -.430511 .707107 .707107 514.512 488.84)"/><rect fill="#f3f5f8" height="31.8135" rx="15.9068" transform="matrix(.902585 -.430511 .707107 .707107 534.492 487.617)" width="31.8135"/><path clip-rule="evenodd" d="m561.167 499.966c-.183.087-.449.041-.592-.102l-2.864-2.864c-1.295-1.294-1.005-2.982.647-3.77l3.989-1.903c1.651-.787 4.04-.377 5.334.917l2.864 2.864c.144.144.111.331-.072.419-.184.088-.449.042-.593-.102l-2.864-2.864c-1.006-1.006-2.864-1.326-4.149-.713l-3.988 1.902c-1.285.613-1.51 1.926-.504 2.933l2.864 2.864c.144.143.112.331-.072.419zm-.876-12.657c1.438 1.438 1.116 3.313-.72 4.188-1.835.876-4.489.42-5.927-1.018s-1.115-3.313.72-4.189c1.836-.875 4.489-.419 5.927 1.019zm-1.24 3.668c1.468-.701 1.726-2.201.575-3.351-1.15-1.151-3.273-1.515-4.741-.815-1.469.7-1.726 2.201-.576 3.351s3.273 1.515 4.742.815z" fill="#94a2ab" fill-rule="evenodd"/><rect fill="#94a2ab" height="7.95338" rx="3.97669" transform="matrix(.902585 -.430511 .707107 .707107 576.527 473.105)" width="125.929"/><g clip-path="url(#q)"><path d="m0 0h248.543v63.627h-248.543z" fill="#fe6c66" transform="matrix(.902585 -.430511 .707107 .707107 184.105 158.438)"/><g clip-path="url(#r)"><path d="m225.695 175.289 9.572-4.565m-6.291 7.846 9.571-4.566m-6.29 7.846 9.571-4.565" stroke="#ffb0ad" stroke-linecap="round" stroke-linejoin="round" stroke-width="1.98834"/></g><rect fill="#ffb0ad" height="7.95338" rx="3.97669" transform="matrix(.902585 -.430511 .707107 .707107 283.594 148.363)" width="84.1733"/><g clip-path="url(#s)"><circle r="6.95921" stroke="#ffb0ad" stroke-width="1.98834" transform="matrix(.902585 -.430511 .707107 .707107 415.022 89.8272)"/></g></g></g><rect height="536.853" rx="25.8485" stroke="#94a2ab" stroke-opacity=".3" stroke-width="1.32556" transform="matrix(.902585 -.430511 .707107 .707107 184.08 158.95)" width="247.218" x="1.06687" y=".183323"/><path d="m112.543 126.73 129.42-61.7295c8.867-4.2295 21.687-2.0267 28.634 4.9202l19.366 19.366" stroke="#fff" stroke-linecap="round" stroke-linejoin="round" stroke-width="2.96476"/><g clip-path="url(#t)"><path d="m283.299 89.3693 9.139-4.3591c.513-.245 1.27.0362 1.364.5071l1.696 8.4443c.095.4746-.553.7837-1.162.5541l-10.834-4.0852c-.604-.2278-.717-.8162-.203-1.0612z" fill="#dfe6ec" stroke="#94a2ab" stroke-width="2.96476"/></g><path clip-rule="evenodd" d="m119.235 123.541c-3.473-3.474-9.883-4.575-14.317-2.46-4.433 2.115-5.2119 6.645-1.738 10.118 3.473 3.474 9.883 4.575 14.317 2.46 4.433-2.115 5.212-6.645 1.738-10.118z" fill="#dfe6ec" fill-rule="evenodd" opacity=".4"/><path d="m108.057 124.223c2.217-1.057 5.422-.506 7.159 1.23 1.737 1.737 1.347 4.002-.869 5.059-2.217 1.058-5.422.507-7.159-1.23-1.737-1.736-1.347-4.001.869-5.059z" fill="#dfe6ec" stroke="#94a2ab" stroke-width="2.96476"/><path d="m539.109 514.273-129.419 61.73c-8.868 4.23-21.687 2.027-28.634-4.92l-19.366-19.366" stroke="#fff" stroke-linecap="round" stroke-linejoin="round" stroke-width="2.96476"/><g clip-path="url(#u)"><path d="m368.354 551.635-9.139 4.359c-.514.245-1.271-.036-1.365-.507l-1.695-8.445c-.096-.474.552-.783 1.161-.554l10.835 4.085c.604.228.716.817.203 1.062z" fill="#dfe6ec" stroke="#94a2ab" stroke-width="2.96476"/></g><g fill="#dfe6ec"><path clip-rule="evenodd" d="m532.417 517.463c3.474 3.473 9.884 4.575 14.317 2.46 4.434-2.115 5.212-6.645 1.739-10.118-3.474-3.474-9.884-4.575-14.317-2.46-4.434 2.114-5.212 6.645-1.739 10.118z" fill-rule="evenodd" opacity=".4"/><path d="m543.595 516.781c-2.217 1.057-5.422.506-7.159-1.23-1.736-1.737-1.347-4.002.87-5.059 2.217-1.058 5.421-.507 7.158 1.23 1.737 1.736 1.348 4.001-.869 5.059z" stroke="#94a2ab" stroke-width="2.96476"/></g></g></g></svg>